<?xml version="1.0" encoding="UTF-8" standalone="no"?>
<svg width="252px" height="158px" viewBox="0 0 252 158" version="1.1" xmlns="http://www.w3.org/2000/svg" xmlns:xlink="http://www.w3.org/1999/xlink">
    <!-- Generator: Sketch 49.1 (51147) - http://www.bohemiancoding.com/sketch -->
    <title>Hat</title>
    <desc>Created with Sketch.</desc>
    <defs></defs>
    <g id="Hat" stroke="none" stroke-width="1" fill="none" fill-rule="evenodd">
        <g id="Group" transform="translate(2.000000, 2.000000)" fill="#FFFFFF">
            <path d="M46.579639,78.8038241 C40.6177115,20.010522 82.2636097,5.66380481 97.3722004,2.71341264 C112.480791,-0.236979523 132.178385,-1.4792983 150.493841,2.62172861 C168.809298,6.72275552 204.158565,18.6820154 201.657064,78.0538487 C175.25253,91.2224262 134.610736,97.1763908 120.236091,96.1165198 C105.861446,95.0566487 84.0330099,94.5120492 46.579639,78.8038241 Z" id="Path-7"></path>
            <path d="M42.1111282,93.3477225 C79.238096,111.46357 149.01182,113.011196 192.31648,97.1984518 C228.419058,79.5410242 236.47033,94.9897827 242.609294,101.081271 C248.318582,106.856448 255.291703,131.533062 227.50347,145.689219 C210.917746,153.124936 205.154079,152.738804 205.154079,152.738804 C205.154079,152.738804 205.190081,152.225666 205.077282,151.345062 C204.705951,147.818585 194.771195,135.671035 177.824736,130.443998 C152.889048,122.752731 92.3071938,124.485459 77.117398,128.243582 C61.9276022,132.001704 46.8495579,138.290003 41.3043409,153.441104 C41.3043409,153.441104 10.2324867,147.982816 2.77679038,129.64268 C-0.995689526,119.314192 -2.51388927,107.341456 8.79865068,96.7326969 C15.9463591,89.9336599 21.1313776,85.3713615 42.1111282,93.3477225 Z" id="Path-8"></path>
        </g>
    </g>
</svg>