<?xml version="1.0" encoding="UTF-8" standalone="no"?>
<svg width="753px" height="109px" viewBox="0 0 753 109" version="1.1" xmlns="http://www.w3.org/2000/svg" xmlns:xlink="http://www.w3.org/1999/xlink">
    <!-- Generator: Sketch 49.1 (51147) - http://www.bohemiancoding.com/sketch -->
    <title>Text</title>
    <desc>Created with Sketch.</desc>
    <defs></defs>
    <g id="Text" stroke="none" stroke-width="1" fill="none" fill-rule="evenodd">
        <path d="M53.4818174,87.7302752 C52.4069493,87.2899061 51.4746797,86.6733985 50.6849807,85.8807339 C48.9739662,84.251368 48.1184718,82.2257002 48.1184718,79.8036697 L48.1184718,55.8917431 C48.1184718,53.9541188 47.8223391,52.1266141 47.2300648,50.4091743 C46.6377906,48.6917345 45.793264,47.1945018 44.6964599,45.9174312 C43.5996557,44.6403606 42.2615747,43.6495448 40.6821767,42.9449541 C39.1027786,42.2403634 37.369854,41.8880734 35.4833509,41.8880734 C33.5529755,41.8880734 31.6006934,42.2183453 29.6264458,42.8788991 C27.6521983,43.5394528 25.8315307,44.4642142 24.1643884,45.653211 C22.4533738,46.8862447 21.0823892,48.3284321 20.0513933,49.9798165 C19.0203973,51.6312009 18.5049071,53.359624 18.5049071,55.1651376 L18.5049071,79.5394495 C18.5049071,80.7284463 18.2855496,81.8513709 17.8468279,82.9082569 C17.4081062,83.9651429 16.7939051,84.8899043 16.0042061,85.6825688 C14.2931916,87.4000086 12.2312307,88.2587156 9.81826148,88.2587156 C8.63371297,88.2587156 7.49305374,88.0275252 6.39624956,87.5651376 C5.29944539,87.10275 4.35620794,86.4752333 3.56650894,85.6825688 C2.77680993,84.8899043 2.15164093,83.9541338 1.69098318,82.8752294 C1.23032542,81.7963249 1,80.6844094 1,79.5394495 L1,9.85137615 C1,8.66237938 1.23032542,7.5174367 1.69098318,6.41651376 C2.15164093,5.31559083 2.79874569,4.3688113 3.63231686,3.57614679 C4.42201587,2.78348228 5.35428543,2.15596561 6.42915352,1.69357798 C7.50402161,1.23119035 8.63371297,1 9.81826148,1 C10.9589378,1 12.0666934,1.23119035 13.1415615,1.69357798 C14.2164296,2.15596561 15.1486992,2.78348228 15.9383982,3.57614679 C16.7280972,4.3688113 17.3532662,5.31559083 17.8139239,6.41651376 C18.2745817,7.5174367 18.5049071,8.66237938 18.5049071,9.85137615 L18.5049071,31.5174312 C21.0056206,29.3155853 23.6927506,27.5981713 26.5663775,26.3651376 C29.4400044,25.1321039 32.4122992,24.5155963 35.4833509,24.5155963 C39.6512067,24.5155963 43.5886747,25.319258 47.2958728,26.9266055 C51.0030709,28.533953 54.2385947,30.7908112 57.0025412,33.6972477 C59.7226155,36.5596473 61.8394158,39.9064029 63.3530056,43.7376147 C64.8665954,47.5688265 65.6233789,51.6201621 65.6233789,55.8917431 L65.6233789,79.8036697 C65.6233789,82.2257002 64.7678845,84.251368 63.05687,85.8807339 C61.3019833,87.5541368 59.2400224,88.3908257 56.8709253,88.3908257 C55.6863768,88.3908257 54.5566855,88.1706444 53.4818174,87.7302752 Z M94.8091921,86.5082569 C90.9265053,84.8568725 87.4935597,82.5339599 84.5102524,79.5394495 C81.526945,76.5889761 79.201755,73.154148 77.5346127,69.2348624 C75.8674703,65.3155767 75.0339117,61.1761686 75.0339117,56.8165138 C75.0339117,52.4568589 75.8674703,48.3064417 77.5346127,44.3651376 C79.201755,40.4238335 81.526945,36.9559783 84.5102524,33.9614679 C87.4935597,30.9669575 90.9265053,28.644045 94.8091921,26.9926606 C98.6918789,25.3412761 102.804833,24.5155963 107.148177,24.5155963 C111.44765,24.5155963 115.538668,25.3302671 119.421355,26.959633 C123.304041,28.588999 126.715051,30.8788843 129.654487,33.8293578 C132.593922,36.7357943 134.908144,40.1265861 136.597222,44.0018349 C138.286301,47.8770836 139.174699,51.9724555 139.262443,56.2880734 L139.262443,80.0018349 C139.262443,82.5119392 138.406949,84.6256795 136.695934,86.3431193 C135.862363,87.1798207 134.89719,87.8293555 133.800386,88.2917431 C132.703581,88.7541308 131.540986,88.9853211 130.312566,88.9853211 C128.689296,88.9853211 127.252504,88.622022 126.002147,87.8954128 C124.75179,87.1688037 123.731778,86.1449607 122.942079,84.8238532 C117.984524,87.598179 112.719943,88.9853211 107.148177,88.9853211 C102.804833,88.9853211 98.6918789,88.1596413 94.8091921,86.5082569 Z M112.807659,70.2256881 C114.606417,69.4770605 116.163856,68.4422084 117.480021,67.1211009 C118.840058,65.7559565 119.892974,64.1926694 120.638801,62.4311927 C121.384628,60.669716 121.757536,58.798175 121.757536,56.8165138 C121.757536,54.8348525 121.384628,52.9633116 120.638801,51.2018349 C119.892974,49.4403582 118.840058,47.877071 117.480021,46.5119266 C116.163856,45.1908191 114.606417,44.155967 112.807659,43.4073394 C111.0089,42.6587119 109.122425,42.2844037 107.148177,42.2844037 C105.217802,42.2844037 103.364231,42.6587119 101.587408,43.4073394 C99.8105852,44.155967 98.2641145,45.1908191 96.9479495,46.5119266 C95.5879123,47.877071 94.5240283,49.4403582 93.7562653,51.2018349 C92.9885024,52.9633116 92.6046267,54.8348525 92.6046267,56.8165138 C92.6046267,58.798175 92.9885024,60.669716 93.7562653,62.4311927 C94.5240283,64.1926694 95.5879123,65.7559565 96.9479495,67.1211009 C98.2641145,68.4422084 99.8105852,69.4770605 101.587408,70.2256881 C103.364231,70.9743157 105.217802,71.3486239 107.148177,71.3486239 C109.122425,71.3486239 111.0089,70.9743157 112.807659,70.2256881 Z M170.685726,86.5412844 C166.759167,84.8678815 163.326221,82.5559781 160.386786,79.6055046 C157.447351,76.6550311 155.144096,73.209194 153.476954,69.2678899 C151.809812,65.3265858 150.976253,61.1761686 150.976253,56.8165138 L150.976253,14.0788991 C150.976253,12.8899023 151.206578,11.7449596 151.667236,10.6440367 C152.127894,9.54311376 152.774999,8.57431611 153.60857,7.73761468 C154.398269,6.94495017 155.330538,6.3174335 156.405407,5.85504587 C157.480275,5.39265824 158.609966,5.16146789 159.794515,5.16146789 C160.979063,5.16146789 162.13069,5.39265824 163.24943,5.85504587 C164.368171,6.3174335 165.344312,6.94495017 166.177883,7.73761468 C167.011454,8.57431611 167.680495,9.54311376 168.185025,10.6440367 C168.689554,11.7449596 168.941816,12.8899023 168.941816,14.0788991 L168.941816,22.533945 L189.144848,22.533945 C190.329396,22.533945 191.459087,22.7651353 192.533955,23.2275229 C193.608824,23.6899106 194.563029,24.3174272 195.3966,25.1100917 C196.186299,25.9467932 196.811468,26.9045818 197.272126,27.9834862 C197.732784,29.0623907 197.963109,30.1963243 197.963109,31.3853211 C197.963109,33.7192777 197.107615,35.7009093 195.3966,37.3302752 C194.563029,38.1229397 193.608824,38.7394473 192.533955,39.1798165 C191.459087,39.6201857 190.329396,39.840367 189.144848,39.840367 L168.941816,39.840367 L168.941816,56.9486239 C168.941816,58.9302851 169.292788,60.8128351 169.994742,62.5963303 C170.696697,64.3798254 171.705742,65.9321035 173.021907,67.253211 C174.338072,68.6183554 175.851639,69.6642166 177.562653,70.3908257 C179.273668,71.1174348 181.116271,71.4807339 183.090519,71.4807339 C186.907397,71.4807339 189.934531,70.4458819 192.172012,68.3761468 C194.277876,66.3944855 196.493387,65.4036697 198.818612,65.4036697 C199.7838,65.4036697 200.759941,65.6128419 201.747064,66.0311927 C202.734188,66.4495434 203.578715,67.0330238 204.280669,67.7816514 C205.90394,69.4990912 206.715563,71.4366865 206.715563,73.5944954 C206.715563,74.9596399 206.441366,76.3027457 205.892964,77.6238532 C205.344561,78.9449607 204.565842,80.1119215 203.556782,81.1247706 C200.836708,83.7669857 197.743767,85.7486172 194.277865,87.0697248 C190.811964,88.3908323 187.082886,89.0513761 183.090519,89.0513761 C178.747174,89.0513761 174.612285,88.2146873 170.685726,86.5412844 Z M261.171618,86.5082569 C257.288931,84.8568725 253.855985,82.5339599 250.872678,79.5394495 C247.889371,76.5889761 245.564181,73.154148 243.897038,69.2348624 C242.229896,65.3155767 241.396337,61.1761686 241.396337,56.8165138 C241.396337,52.4568589 242.229896,48.3064417 243.897038,44.3651376 C245.564181,40.4238335 247.889371,36.9559783 250.872678,33.9614679 C253.855985,30.9669575 257.288931,28.644045 261.171618,26.9926606 C265.054304,25.3412761 269.167258,24.5155963 273.510603,24.5155963 C277.853947,24.5155963 281.988837,25.3522852 285.915396,27.0256881 C289.841955,28.6990909 293.274901,31.0109944 296.214336,33.9614679 C299.153771,36.9559783 301.457025,40.4238335 303.124168,44.3651376 C304.79131,48.3064417 305.624869,52.4568589 305.624869,56.8165138 C305.624869,61.1761686 304.802278,65.3045677 303.157072,69.2018349 C301.511865,73.0991021 299.197643,76.5449392 296.214336,79.5394495 C293.274901,82.489923 289.841955,84.8018265 285.915396,86.4752294 C281.988837,88.1486322 277.853947,88.9853211 273.510603,88.9853211 C269.167258,88.9853211 265.054304,88.1596413 261.171618,86.5082569 Z M279.170084,70.2256881 C280.968843,69.4770605 282.526282,68.4422084 283.842447,67.1211009 C285.202484,65.7559565 286.2554,64.1926694 287.001227,62.4311927 C287.747054,60.669716 288.119961,58.798175 288.119961,56.8165138 C288.119961,54.8348525 287.747054,52.9633116 287.001227,51.2018349 C286.2554,49.4403582 285.202484,47.877071 283.842447,46.5119266 C282.526282,45.1908191 280.968843,44.155967 279.170084,43.4073394 C277.371325,42.6587119 275.48485,42.2844037 273.510603,42.2844037 C271.580228,42.2844037 269.726656,42.6587119 267.949834,43.4073394 C266.173011,44.155967 264.62654,45.1908191 263.310375,46.5119266 C261.950338,47.877071 260.886454,49.4403582 260.118691,51.2018349 C259.350928,52.9633116 258.967052,54.8348525 258.967052,56.8165138 C258.967052,58.798175 259.350928,60.669716 260.118691,62.4311927 C260.886454,64.1926694 261.950338,65.7559565 263.310375,67.1211009 C264.62654,68.4422084 266.173011,69.4770605 267.949834,70.2256881 C269.726656,70.9743157 271.580228,71.3486239 273.510603,71.3486239 C275.48485,71.3486239 277.371325,70.9743157 279.170084,70.2256881 Z M348.729057,41.5908257 C349.825861,42.0532133 350.769099,42.68073 351.558798,43.4733945 C352.348497,44.266059 352.973666,45.1908204 353.434324,46.2477064 C353.894981,47.3045924 354.125307,48.427517 354.125307,49.6165138 C354.125307,50.8055105 353.894981,51.9504532 353.434324,53.0513761 C352.973666,54.1522991 352.348497,55.0990786 351.558798,55.8917431 C350.769099,56.6844076 349.825861,57.3119243 348.729057,57.7743119 C347.632253,58.2366996 346.491594,58.4678899 345.307045,58.4678899 L341.35857,58.4678899 L341.35857,86.4091743 C341.314698,89.4477216 340.711465,92.3210874 339.548852,95.0293578 C338.38624,97.7376282 336.795897,100.126595 334.777778,102.19633 C332.715786,104.354139 330.302853,106.027517 327.538906,107.216514 C324.77496,108.405511 321.835569,109 318.720645,109 C316.263804,109 314.201843,108.163311 312.5347,106.489908 C310.823686,104.772468 309.968191,102.658728 309.968191,100.148624 C309.968191,99.003664 310.198517,97.8917485 310.659175,96.812844 C311.119832,95.7339396 311.745001,94.7981691 312.5347,94.0055046 C314.245715,92.2880648 316.307676,91.4293578 318.720645,91.4293578 C320.03681,91.4293578 321.188437,90.944959 322.175561,89.9761468 C323.162685,89.0073346 323.700111,87.8623919 323.787855,86.5412844 L323.787855,58.4678899 L321.879425,58.4678899 C319.422584,58.4678899 317.360623,57.5871648 315.693481,55.8256881 C314.903782,55.0330236 314.278613,54.0972531 313.817955,53.0183486 C313.357297,51.9394441 313.126972,50.8055105 313.126972,49.6165138 C313.126972,48.427517 313.357297,47.3045924 313.817955,46.2477064 C314.278613,45.1908204 314.903782,44.266059 315.693481,43.4733945 C317.404495,41.7559547 319.466456,40.8972477 321.879425,40.8972477 L323.787855,40.8972477 L323.787855,23.5247706 C323.831727,20.5302603 324.445928,17.6568945 325.630477,14.9045872 C326.815025,12.1522798 328.460207,9.74129475 330.566071,7.67155963 C332.671935,5.60182451 335.084868,3.98349207 337.804942,2.81651376 C340.525017,1.64953545 343.420536,1.06605505 346.491588,1.06605505 C347.676136,1.06605505 348.816796,1.29724539 349.9136,1.75963303 C351.010404,2.22202066 351.975577,2.84953732 352.809148,3.64220183 C353.598847,4.43486635 354.224016,5.39265494 354.684674,6.51559633 C355.145332,7.63853772 355.375657,8.79448947 355.375657,9.98348624 C355.375657,11.1284461 355.145332,12.2403616 354.684674,13.3192661 C354.224016,14.3981705 353.598847,15.333941 352.809148,16.1266055 C351.975577,16.91927 351.010404,17.5467867 349.9136,18.0091743 C348.816796,18.4715619 347.676136,18.7027523 346.491588,18.7027523 L346.294164,18.7027523 C344.977999,18.7908261 343.848308,19.2972431 342.905056,20.2220183 C341.961804,21.1467936 341.446314,22.2697182 341.35857,23.5908257 L341.35857,40.8972477 L345.307045,40.8972477 C346.491594,40.8972477 347.632253,41.1284381 348.729057,41.5908257 Z M394.268139,85.7486239 C392.732613,84.075221 391.964862,81.9174444 391.964862,79.2752294 C391.964862,76.6770512 392.699709,74.5963381 394.169427,73.0330275 C395.639145,71.469717 397.580459,70.6880734 399.993428,70.6880734 L423.552664,70.6880734 C424.561724,70.6880734 425.373347,70.4899102 425.987557,70.093578 C426.821128,69.565135 427.237907,68.7504642 427.237907,67.6495413 C427.237907,66.5045814 426.821128,65.7119288 425.987557,65.2715596 C425.504963,65.0073381 424.671404,64.8752294 423.486856,64.8752294 L412.760165,64.8752294 C409.952346,64.8752294 407.341991,64.3137671 404.929022,63.1908257 C402.516053,62.0678843 400.432156,60.5156062 398.67727,58.533945 C396.922383,56.5522837 395.551398,54.3064346 394.564274,51.7963303 C393.577151,49.286226 393.083596,46.6880868 393.083596,44.0018349 C393.083596,41.4036567 393.599086,38.9045992 394.630082,36.5045872 C395.661078,34.1045752 397.075934,32.023862 398.874693,30.2623853 C400.717324,28.4568717 402.823157,27.0477115 405.192254,26.0348624 C407.561351,25.0220133 410.083963,24.5155963 412.760165,24.5155963 L433.16062,24.5155963 C435.661334,24.5155963 437.701359,25.2421946 439.280757,26.6954128 C440.991772,28.2807419 441.847266,30.3944822 441.847266,33.0366972 C441.847266,35.5908385 441.057579,37.7265969 439.478181,39.4440367 C438.776226,40.2807381 437.909764,40.9302729 436.878768,41.3926606 C435.847772,41.8550482 434.783888,42.0862385 433.687084,42.0862385 L413.089204,42.0862385 C412.431122,42.0862385 411.849824,42.3284379 411.345294,42.812844 C410.840765,43.2972501 410.588503,43.9137577 410.588503,44.6623853 C410.588503,45.5871606 410.829797,46.2477044 411.31239,46.6440367 C411.794984,47.040369 412.343378,47.2385321 412.957589,47.2385321 L424.93463,47.2385321 C427.742449,47.2385321 430.374739,47.7889853 432.831581,48.8899083 C435.288422,49.9908312 437.41619,51.5321002 439.214949,53.5137615 C440.969836,55.4513858 442.329853,57.6752168 443.29504,60.1853211 C444.260228,62.6954254 444.742815,65.3155827 444.742815,68.0458716 C444.742815,70.7321235 444.282164,73.2752174 443.360848,75.6752294 C442.439533,78.0752414 441.123387,80.1999908 439.412373,82.0495413 C437.657486,83.9431287 435.595525,85.4293524 433.226428,86.5082569 C430.857331,87.5871614 428.290848,88.1706418 425.526902,88.2587156 L399.993428,88.2587156 C397.712075,88.2587156 395.803665,87.4220267 394.268139,85.7486239 Z M504.200272,87.7302752 C503.125404,87.2899061 502.193134,86.6733985 501.403435,85.8807339 C499.69242,84.251368 498.836926,82.2257002 498.836926,79.8036697 L498.836926,55.8917431 C498.836926,53.9541188 498.540793,52.1266141 497.948519,50.4091743 C497.356245,48.6917345 496.511718,47.1945018 495.414914,45.9174312 C494.31811,44.6403606 492.980029,43.6495448 491.400631,42.9449541 C489.821233,42.2403634 488.088308,41.8880734 486.201805,41.8880734 C484.27143,41.8880734 482.319148,42.2183453 480.3449,42.8788991 C478.370653,43.5394528 476.549985,44.4642142 474.882843,45.653211 C473.171828,46.8862447 471.800843,48.3284321 470.769848,49.9798165 C469.738852,51.6312009 469.223361,53.359624 469.223361,55.1651376 L469.223361,79.5394495 C469.223361,80.7284463 469.004004,81.8513709 468.565282,82.9082569 C468.12656,83.9651429 467.512359,84.8899043 466.72266,85.6825688 C465.011646,87.4000086 462.949685,88.2587156 460.536716,88.2587156 C459.352167,88.2587156 458.211508,88.0275252 457.114704,87.5651376 C456.0179,87.10275 455.074662,86.4752333 454.284963,85.6825688 C453.495264,84.8899043 452.870095,83.9541338 452.409437,82.8752294 C451.94878,81.7963249 451.718454,80.6844094 451.718454,79.5394495 L451.718454,9.85137615 C451.718454,8.66237938 451.94878,7.5174367 452.409437,6.41651376 C452.870095,5.31559083 453.5172,4.3688113 454.350771,3.57614679 C455.14047,2.78348228 456.07274,2.15596561 457.147608,1.69357798 C458.222476,1.23119035 459.352167,1 460.536716,1 C461.677392,1 462.785148,1.23119035 463.860016,1.69357798 C464.934884,2.15596561 465.867153,2.78348228 466.656852,3.57614679 C467.446551,4.3688113 468.07172,5.31559083 468.532378,6.41651376 C468.993036,7.5174367 469.223361,8.66237938 469.223361,9.85137615 L469.223361,31.5174312 C471.724075,29.3155853 474.411205,27.5981713 477.284832,26.3651376 C480.158459,25.1321039 483.130753,24.5155963 486.201805,24.5155963 C490.369661,24.5155963 494.307129,25.319258 498.014327,26.9266055 C501.721525,28.533953 504.957049,30.7908112 507.720995,33.6972477 C510.44107,36.5596473 512.55787,39.9064029 514.07146,43.7376147 C515.58505,47.5688265 516.341833,51.6201621 516.341833,55.8917431 L516.341833,79.8036697 C516.341833,82.2257002 515.486339,84.251368 513.775324,85.8807339 C512.020438,87.5541368 509.958477,88.3908257 507.58938,88.3908257 C506.404831,88.3908257 505.27514,88.1706444 504.200272,87.7302752 Z M545.527646,86.5082569 C541.64496,84.8568725 538.212014,82.5339599 535.228707,79.5394495 C532.245399,76.5889761 529.920209,73.154148 528.253067,69.2348624 C526.585925,65.3155767 525.752366,61.1761686 525.752366,56.8165138 C525.752366,52.4568589 526.585925,48.3064417 528.253067,44.3651376 C529.920209,40.4238335 532.245399,36.9559783 535.228707,33.9614679 C538.212014,30.9669575 541.64496,28.644045 545.527646,26.9926606 C549.410333,25.3412761 553.523287,24.5155963 557.866632,24.5155963 C562.166104,24.5155963 566.257122,25.3302671 570.139809,26.959633 C574.022496,28.588999 577.433506,30.8788843 580.372941,33.8293578 C583.312376,36.7357943 585.626598,40.1265861 587.315676,44.0018349 C589.004755,47.8770836 589.893153,51.9724555 589.980897,56.2880734 L589.980897,80.0018349 C589.980897,82.5119392 589.125403,84.6256795 587.414388,86.3431193 C586.580817,87.1798207 585.615644,87.8293555 584.51884,88.2917431 C583.422036,88.7541308 582.259441,88.9853211 581.03102,88.9853211 C579.40775,88.9853211 577.970958,88.622022 576.720601,87.8954128 C575.470244,87.1688037 574.450232,86.1449607 573.660533,84.8238532 C568.702978,87.598179 563.438397,88.9853211 557.866632,88.9853211 C553.523287,88.9853211 549.410333,88.1596413 545.527646,86.5082569 Z M563.526113,70.2256881 C565.324872,69.4770605 566.88231,68.4422084 568.198475,67.1211009 C569.558512,65.7559565 570.611429,64.1926694 571.357256,62.4311927 C572.103082,60.669716 572.47599,58.798175 572.47599,56.8165138 C572.47599,54.8348525 572.103082,52.9633116 571.357256,51.2018349 C570.611429,49.4403582 569.558512,47.877071 568.198475,46.5119266 C566.88231,45.1908191 565.324872,44.155967 563.526113,43.4073394 C561.727354,42.6587119 559.840879,42.2844037 557.866632,42.2844037 C555.936256,42.2844037 554.082685,42.6587119 552.305862,43.4073394 C550.529039,44.155967 548.982569,45.1908191 547.666404,46.5119266 C546.306367,47.877071 545.242483,49.4403582 544.47472,51.2018349 C543.706957,52.9633116 543.323081,54.8348525 543.323081,56.8165138 C543.323081,58.798175 543.706957,60.669716 544.47472,62.4311927 C545.242483,64.1926694 546.306367,65.7559565 547.666404,67.1211009 C548.982569,68.4422084 550.529039,69.4770605 552.305862,70.2256881 C554.082685,70.9743157 555.936256,71.3486239 557.866632,71.3486239 C559.840879,71.3486239 561.727354,70.9743157 563.526113,70.2256881 Z M604.261216,85.7486239 C603.471517,84.9559593 602.846348,84.0311979 602.385691,82.9743119 C601.925033,81.9174259 601.694707,80.7945014 601.694707,79.6055046 L601.694707,46.1816514 C601.694707,42.9669564 602.308908,39.9284547 603.537329,37.066055 C604.76575,34.2036554 606.476739,31.6715706 608.670347,29.4697248 C610.820083,27.2678789 613.320759,25.5614739 616.17245,24.3504587 C619.024141,23.1394435 622.051275,22.533945 625.253943,22.533945 C630.737964,22.533945 635.739316,24.3394315 640.258149,27.9504587 C644.776983,24.3394315 649.756399,22.533945 655.196547,22.533945 C658.399216,22.533945 661.470221,23.1394435 664.409657,24.3504587 C667.349092,25.5614739 669.959446,27.2678789 672.240799,29.4697248 C674.522152,31.6715706 676.298948,34.2146645 677.571241,37.0990826 C678.843534,39.9835007 679.479671,43.0109933 679.479671,46.1816514 L679.479671,79.6055046 C679.479671,80.7945014 679.249345,81.9174259 678.788687,82.9743119 C678.32803,84.0311979 677.702861,84.9559593 676.913162,85.7486239 C675.246019,87.4220267 673.22793,88.2587156 670.858833,88.2587156 C668.401991,88.2587156 666.340031,87.4220267 664.672888,85.7486239 C663.883189,84.9559593 663.25802,84.0311979 662.797362,82.9743119 C662.336705,81.9174259 662.106379,80.7945014 662.106379,79.6055046 L662.106379,46.7100917 C662.106379,45.9174272 661.908957,45.1357837 661.514108,44.3651376 C661.119258,43.5944916 660.5928,42.9229386 659.934718,42.3504587 C659.276635,41.8220157 658.541788,41.4036713 657.730152,41.0954128 C656.918517,40.7871544 656.117862,40.6330275 655.328163,40.6330275 C653.792637,40.6330275 652.443589,41.1284354 651.280976,42.1192661 C650.118364,43.1100967 649.427387,44.354121 649.208027,45.8513761 C649.208027,46.0715607 649.229962,46.2477058 649.273835,46.3798165 L649.273835,79.3412844 C649.273835,81.7192779 648.440276,83.788982 646.773134,85.5504587 C645.983435,86.3431232 645.062133,86.9706399 644.009201,87.4330275 C642.956269,87.8954152 641.837545,88.1266055 640.652997,88.1266055 C638.240028,88.1266055 636.178067,87.2678985 634.467052,85.5504587 C632.756038,83.8330189 631.900543,81.7633149 631.900543,79.3412844 L631.900543,47.5688073 L631.768927,46.7761468 L631.768927,46.7100917 C631.768927,45.9174272 631.604409,45.1357837 631.275368,44.3651376 C630.946327,43.5944916 630.496644,42.9229386 629.926306,42.3504587 C629.355967,41.7779788 628.686927,41.3266072 627.919164,40.9963303 C627.151401,40.6660534 626.372682,40.5009174 625.582983,40.5009174 C624.047457,40.5009174 622.68744,40.9632981 621.502892,41.8880734 C620.318343,42.8128487 619.550592,44.0018276 619.199614,45.4550459 C619.287359,46.0715627 619.33123,46.4899072 619.33123,46.7100917 L619.067999,79.6055046 C619.024126,80.7945014 618.782833,81.9174259 618.344111,82.9743119 C617.90539,84.0311979 617.291189,84.9559593 616.50149,85.7486239 C614.834347,87.4220267 612.816258,88.2587156 610.447161,88.2587156 C607.99032,88.2587156 605.928359,87.4220267 604.261216,85.7486239 Z M707.250613,86.4752294 C703.302118,84.8018265 699.836269,82.489923 696.852962,79.5394495 C693.869654,76.5449392 691.533497,73.0991021 689.844418,69.2018349 C688.15534,65.3045677 687.310813,61.1761686 687.310813,56.8165138 C687.310813,52.412822 688.15534,48.2403867 689.844418,44.2990826 C691.533497,40.3577785 693.869654,36.8899232 696.852962,33.8954128 C699.836269,30.9449394 703.29115,28.644045 707.217709,26.9926606 C711.144268,25.3412761 715.301094,24.5155963 719.688311,24.5155963 C723.987783,24.5155963 728.089769,25.3302671 731.994392,26.959633 C735.899015,28.588999 739.342928,30.8568662 742.326236,33.7633028 C745.265671,36.7137762 747.590861,40.1375952 749.301875,44.0348624 C751.01289,47.9321296 751.912256,52.0385105 752,56.3541284 C752,58.8642327 751.199345,60.8788915 749.598011,62.3981651 C747.996677,63.9174388 745.923748,64.6770642 743.379162,64.6770642 L706.855766,64.6770642 C708.303547,66.9669839 710.146151,68.7724705 712.383631,70.093578 C714.621112,71.4146855 717.055981,72.0752294 719.688311,72.0752294 C721.311581,72.0752294 722.649662,71.9431206 723.702594,71.6788991 C724.755526,71.4146776 725.720699,71.0183513 726.598142,70.4899083 C728.265285,69.4330222 729.954338,68.9045872 731.665352,68.9045872 C734.034449,68.9045872 736.074474,69.8073304 737.785489,71.612844 C738.531316,72.4495455 739.123581,73.4183431 739.562303,74.5192661 C740.001025,75.620189 740.220382,76.7651317 740.220382,77.9541284 C740.220382,79.4954206 739.792635,80.9265989 738.937128,82.2477064 C738.08162,83.5688139 736.820314,84.7137566 735.153172,85.6825688 C731.336294,87.8844147 726.181391,88.9853211 719.688311,88.9853211 C715.344966,88.9853211 711.199108,88.1486322 707.250613,86.4752294 Z M734.034437,50.012844 C732.806017,47.3265921 730.952446,45.2018427 728.473668,43.6385321 C725.994891,42.0752215 723.176146,41.293578 720.01735,41.293578 C716.858554,41.293578 714.094649,42.0862306 711.725552,43.6715596 C709.356455,45.2568887 707.557723,47.370629 706.329302,50.012844 L734.034437,50.012844 Z" id="hat-of-shame-copy-3" fill="#61B3E8"></path>
    </g>
</svg>