<?xml version="1.0" encoding="UTF-8" standalone="no"?>
<svg width="753px" height="109px" viewBox="0 0 753 109" version="1.1" xmlns="http://www.w3.org/2000/svg" xmlns:xlink="http://www.w3.org/1999/xlink">
    <!-- Generator: Sketch 49.1 (51147) - http://www.bohemiancoding.com/sketch -->
    <title>Text</title>
    <desc>Created with Sketch.</desc>
    <defs></defs>
    <g id="Text" stroke="none" stroke-width="1" fill="none" fill-rule="evenodd">
        <path d="M54.4503747,87.3540338 C53.3761506,86.915575 52.4444395,86.3017418 51.6552136,85.5125159 C49.9452242,83.8902183 49.0902423,81.873338 49.0902423,79.4618144 L49.0902423,55.6536193 C49.0902423,53.7244004 48.7942871,51.9048236 48.2023677,50.1948342 C47.6104483,48.4848448 46.7664277,46.9941071 45.6702806,45.7225765 C44.5741335,44.4510459 43.2368542,43.4645284 41.6584024,42.7629943 C40.0799507,42.0614601 38.3480643,41.7106983 36.4626913,41.7106983 C34.5334725,41.7106983 32.58236,42.0395375 30.6092953,42.6972258 C28.6362306,43.354914 26.8166537,44.2756637 25.1505102,45.4595026 C23.4405208,46.6871873 22.0703575,48.1231184 21.0399793,49.767339 C20.009601,51.4115596 19.4944196,53.1324846 19.4944196,54.9301658 L19.4944196,79.1987404 C19.4944196,80.3825793 19.2751935,81.5006325 18.8367347,82.5529337 C18.3982759,83.6052349 17.7844427,84.5259846 16.9952168,85.3152105 C15.2852274,87.0251999 13.2245019,87.8801818 10.8129783,87.8801818 C9.62913949,87.8801818 8.48916364,87.6499943 7.39301658,87.1896126 C6.29686952,86.7292308 5.35419719,86.1044363 4.5649713,85.3152105 C3.77574542,84.5259846 3.15095096,83.5942735 2.6905692,82.5200494 C2.23018743,81.4458253 2,80.3387334 2,79.1987404 L2,9.81297832 C2,8.62913949 2.23018743,7.48916364 2.6905692,6.39301658 C3.15095096,5.29686952 3.79766803,4.35419719 4.6307398,3.5649713 C5.41996568,2.77574542 6.35167671,2.15095096 7.42590083,1.6905692 C8.50012495,1.23018743 9.62913949,1 10.8129783,1 C11.9529713,1 13.0600632,1.23018743 14.1342873,1.6905692 C15.2085114,2.15095096 16.1402225,2.77574542 16.9294483,3.5649713 C17.7186742,4.35419719 18.3434687,5.29686952 18.8038504,6.39301658 C19.2642322,7.48916364 19.4944196,8.62913949 19.4944196,9.81297832 L19.4944196,31.3850446 C21.9936349,29.1927505 24.679155,27.4827868 27.5510603,26.255102 C30.4229656,25.0274173 33.3934796,24.4135842 36.4626913,24.4135842 C40.6280502,24.4135842 44.5631591,25.2137595 48.2681362,26.8141342 C51.9731132,28.414509 55.2066986,30.6615767 57.9689892,33.555405 C60.6874339,36.4053873 62.802966,39.7376244 64.3156489,43.5522162 C65.8283319,47.366808 66.584662,51.4005687 66.584662,55.6536193 L66.584662,79.4618144 C66.584662,81.873338 65.7296801,83.8902183 64.0196907,85.5125159 C62.2658554,87.1786595 60.2051298,88.0117187 57.8374522,88.0117187 C56.6536133,88.0117187 55.5245988,87.7924926 54.4503747,87.3540338 Z M95.7529895,86.1373166 C91.8726289,84.4930961 88.44174,82.1802604 85.46022,79.1987404 C82.4787,76.2610663 80.1549031,72.8411388 78.4887596,68.9388552 C76.822616,65.0365717 75.9895568,60.9151206 75.9895568,56.5743782 C75.9895568,52.2336358 76.822616,48.1012234 78.4887596,44.1770169 C80.1549031,40.2528104 82.4787,36.799999 85.46022,33.818479 C88.44174,30.8369589 91.8726289,28.5241233 95.7529895,26.8799027 C99.6333501,25.2356821 103.74384,24.4135842 108.084582,24.4135842 C112.381479,24.4135842 116.470046,25.2247208 120.350407,26.8470185 C124.230767,28.4693161 127.639733,30.7492678 130.577408,33.686942 C133.515082,36.5807702 135.827917,39.9568525 137.515984,43.8152902 C139.20405,47.6737278 140.091916,51.7513337 140.179608,56.0482302 L140.179608,79.6591199 C140.179608,82.1583352 139.324626,84.262906 137.614636,85.9728954 C136.781565,86.8059672 135.81697,87.4526842 134.720823,87.913066 C133.624676,88.3734478 132.462777,88.6036352 131.235092,88.6036352 C129.612795,88.6036352 128.176864,88.2419121 126.927256,87.518455 C125.677648,86.794998 124.658247,85.7755965 123.869021,84.46022 C118.914436,87.2225106 113.653009,88.6036352 108.084582,88.6036352 C103.74384,88.6036352 99.6333501,87.7815372 95.7529895,86.1373166 Z M113.740673,69.9253827 C115.538354,69.1800027 117.094859,68.1496399 118.410236,66.8342634 C119.769458,65.475041 120.821744,63.9185356 121.567124,62.1647003 C122.312504,60.410865 122.685188,58.5474429 122.685188,56.5743782 C122.685188,54.6013135 122.312504,52.7378914 121.567124,50.9840561 C120.821744,49.2302208 119.769458,47.6737153 118.410236,46.314493 C117.094859,44.9991165 115.538354,43.9687537 113.740673,43.2233737 C111.942992,42.4779937 110.057647,42.1053093 108.084582,42.1053093 C106.155363,42.1053093 104.302903,42.4779937 102.527144,43.2233737 C100.751386,43.9687537 99.205842,44.9991165 97.8904656,46.314493 C96.5312432,47.6737153 95.4679965,49.2302208 94.7006936,50.9840561 C93.9333906,52.7378914 93.5497449,54.6013135 93.5497449,56.5743782 C93.5497449,58.5474429 93.9333906,60.410865 94.7006936,62.1647003 C95.4679965,63.9185356 96.5312432,65.475041 97.8904656,66.8342634 C99.205842,68.1496399 100.751386,69.1800027 102.527144,69.9253827 C104.302903,70.6707627 106.155363,71.0434471 108.084582,71.0434471 C110.057647,71.0434471 111.942992,70.6707627 113.740673,69.9253827 Z M171.584064,86.1702009 C167.659858,84.5040574 164.228969,82.2021831 161.291295,79.2645089 C158.353621,76.3268348 156.051746,72.895946 154.385603,68.9717395 C152.719459,65.047533 151.8864,60.9151206 151.8864,56.5743782 L151.8864,14.022162 C151.8864,12.8383232 152.116587,11.6983473 152.576969,10.6022003 C153.037351,9.50605319 153.684068,8.54145825 154.51714,7.70838648 C155.306366,6.91916059 156.238077,6.29436614 157.312301,5.83398438 C158.386525,5.37360261 159.515539,5.14341518 160.699378,5.14341518 C161.883217,5.14341518 163.034154,5.37360261 164.152224,5.83398438 C165.270294,6.29436614 166.24585,6.91916059 167.078922,7.70838648 C167.911994,8.54145825 168.580634,9.50605319 169.084861,10.6022003 C169.589089,11.6983473 169.841199,12.8383232 169.841199,14.022162 L169.841199,22.4405293 L190.032127,22.4405293 C191.215966,22.4405293 192.34498,22.6707168 193.419204,23.1310985 C194.493429,23.5914803 195.447062,24.2162748 196.280134,25.0055006 C197.06936,25.8385724 197.694154,26.792206 198.154536,27.8664302 C198.614918,28.9406543 198.845105,30.0696688 198.845105,31.2535077 C198.845105,33.5773394 197.990123,35.5503745 196.280134,37.1726722 C195.447062,37.9618981 194.493429,38.5757312 193.419204,39.0141901 C192.34498,39.4526489 191.215966,39.671875 190.032127,39.671875 L169.841199,39.671875 L169.841199,56.7059152 C169.841199,58.6789799 170.191961,60.5533633 170.893495,62.3291215 C171.595029,64.1048797 172.603469,65.6504239 173.918846,66.9658004 C175.234222,68.3250227 176.746882,69.3663468 178.456872,70.0898039 C180.166861,70.813261 182.008361,71.1749841 183.981425,71.1749841 C187.796017,71.1749841 190.821338,70.1446213 193.057478,68.0838648 C195.16208,66.1108001 197.376264,65.1242825 199.700096,65.1242825 C200.664705,65.1242825 201.640261,65.3325473 202.626794,65.7490832 C203.613326,66.1656191 204.457347,66.7465683 205.158881,67.4919483 C206.781178,69.2019378 207.592315,71.1311277 207.592315,73.2795759 C207.592315,74.6387983 207.318282,75.9760776 206.770209,77.2914541 C206.222135,78.6068306 205.443883,79.768729 204.435427,80.7771843 C201.716983,83.4079373 198.625894,85.3809724 195.16207,86.6963489 C191.698245,88.0117253 187.971401,88.6694037 183.981425,88.6694037 C179.640683,88.6694037 175.508271,87.8363444 171.584064,86.1702009 Z M262.015745,86.1373166 C258.135384,84.4930961 254.704495,82.1802604 251.722975,79.1987404 C248.741455,76.2610663 246.417658,72.8411388 244.751515,68.9388552 C243.085371,65.0365717 242.252312,60.9151206 242.252312,56.5743782 C242.252312,52.2336358 243.085371,48.1012234 244.751515,44.1770169 C246.417658,40.2528104 248.741455,36.799999 251.722975,33.818479 C254.704495,30.8369589 258.135384,28.5241233 262.015745,26.8799027 C265.896105,25.2356821 270.006595,24.4135842 274.347337,24.4135842 C278.68808,24.4135842 282.820492,25.2466435 286.744699,26.912787 C290.668905,28.5789305 294.099794,30.8808048 297.037468,33.818479 C299.975142,36.799999 302.277017,40.2528104 303.94316,44.1770169 C305.609304,48.1012234 306.442363,52.2336358 306.442363,56.5743782 C306.442363,60.9151206 305.620265,65.0256104 303.976044,68.905971 C302.331824,72.7863316 300.018988,76.2172204 297.037468,79.1987404 C294.099794,82.1364146 290.668905,84.4382889 286.744699,86.1044324 C282.820492,87.7705759 278.68808,88.6036352 274.347337,88.6036352 C270.006595,88.6036352 265.896105,87.7815372 262.015745,86.1373166 Z M280.003428,69.9253827 C281.801109,69.1800027 283.357615,68.1496399 284.672991,66.8342634 C286.032213,65.475041 287.084499,63.9185356 287.829879,62.1647003 C288.575259,60.410865 288.947943,58.5474429 288.947943,56.5743782 C288.947943,54.6013135 288.575259,52.7378914 287.829879,50.9840561 C287.084499,49.2302208 286.032213,47.6737153 284.672991,46.314493 C283.357615,44.9991165 281.801109,43.9687537 280.003428,43.2233737 C278.205747,42.4779937 276.320402,42.1053093 274.347337,42.1053093 C272.418119,42.1053093 270.565658,42.4779937 268.7899,43.2233737 C267.014141,43.9687537 265.468597,44.9991165 264.153221,46.314493 C262.793998,47.6737153 261.730752,49.2302208 260.963449,50.9840561 C260.196146,52.7378914 259.8125,54.6013135 259.8125,56.5743782 C259.8125,58.5474429 260.196146,60.410865 260.963449,62.1647003 C261.730752,63.9185356 262.793998,65.475041 264.153221,66.8342634 C265.468597,68.1496399 267.014141,69.1800027 268.7899,69.9253827 C270.565658,70.6707627 272.418119,71.0434471 274.347337,71.0434471 C276.320402,71.0434471 278.205747,70.6707627 280.003428,69.9253827 Z M349.520727,41.4147401 C350.616874,41.8751219 351.559546,42.4999163 352.348772,43.2891422 C353.137998,44.0783681 353.762793,44.9991178 354.223174,46.051419 C354.683556,47.1037202 354.913744,48.2217734 354.913744,49.4056122 C354.913744,50.5894511 354.683556,51.7294269 354.223174,52.825574 C353.762793,53.921721 353.137998,54.8643934 352.348772,55.6536193 C351.559546,56.4428451 350.616874,57.0676396 349.520727,57.5280214 C348.42458,57.9884031 347.284604,58.2185906 346.100765,58.2185906 L342.154656,58.2185906 L342.154656,86.0386639 C342.11081,89.0640298 341.507938,91.9249307 340.346022,94.6214525 C339.184106,97.3179743 337.594717,99.6965777 335.577806,101.757334 C333.51705,103.905782 331.105562,105.571901 328.343272,106.75574 C325.580981,107.939579 322.643351,108.531489 319.530293,108.531489 C317.074924,108.531489 315.014198,107.69843 313.348055,106.032286 C311.638065,104.322297 310.783084,102.217726 310.783084,99.7185108 C310.783084,98.5785179 311.013271,97.471426 311.473653,96.3972018 C311.934035,95.3229777 312.558829,94.3912667 313.348055,93.6020408 C315.058044,91.8920514 317.11877,91.0370695 319.530293,91.0370695 C320.84567,91.0370695 321.996607,90.554772 322.983139,89.5901626 C323.969672,88.6255532 324.506776,87.4855774 324.594467,86.1702009 L324.594467,58.2185906 L322.687181,58.2185906 C320.231812,58.2185906 318.171086,57.3416861 316.504943,55.5878508 C315.715717,54.7986249 315.090922,53.8669139 314.63054,52.7926897 C314.170159,51.7184656 313.939971,50.5894511 313.939971,49.4056122 C313.939971,48.2217734 314.170159,47.1037202 314.63054,46.051419 C315.090922,44.9991178 315.715717,44.0783681 316.504943,43.2891422 C318.214932,41.5791528 320.275658,40.7241709 322.687181,40.7241709 L324.594467,40.7241709 L324.594467,23.4270568 C324.638313,20.4455368 325.252147,17.5846358 326.435985,14.8442682 C327.619824,12.1039005 329.26402,9.70337446 331.368622,7.64261798 C333.473225,5.58186151 335.884712,3.9705495 338.603157,2.80863361 C341.321602,1.64671772 344.215386,1.06576849 347.284598,1.06576849 C348.468437,1.06576849 349.608413,1.29595593 350.70456,1.75633769 C351.800707,2.21671946 352.765302,2.84151391 353.598374,3.6307398 C354.3876,4.41996568 355.012394,5.37359932 355.472776,6.49166932 C355.933158,7.60973933 356.163345,8.76067648 356.163345,9.94451531 C356.163345,11.0845083 355.933158,12.1916002 355.472776,13.2658243 C355.012394,14.3400484 354.3876,15.2717594 353.598374,16.0609853 C352.765302,16.8502112 351.800707,17.4750057 350.70456,17.9353874 C349.608413,18.3957692 348.468437,18.6259566 347.284598,18.6259566 L347.087293,18.6259566 C345.771916,18.7136484 344.642902,19.2178685 343.700215,20.138632 C342.757529,21.0593955 342.242347,22.1774488 342.154656,23.4928253 L342.154656,40.7241709 L346.100765,40.7241709 C347.284604,40.7241709 348.42458,40.9543583 349.520727,41.4147401 Z M395.032526,85.380979 C393.49792,83.7148354 392.730628,81.5664194 392.730628,78.9356665 C392.730628,76.3487594 393.465036,74.2770725 394.933873,72.7205437 C396.40271,71.1640149 398.342861,70.3857621 400.754385,70.3857621 L424.299506,70.3857621 C425.307961,70.3857621 426.119098,70.1884586 426.73294,69.7938457 C427.566012,69.2676951 427.982541,68.4565584 427.982541,67.3604114 C427.982541,66.2204184 427.566012,65.4312044 426.73294,64.9927455 C426.250635,64.7296702 425.417576,64.5981346 424.233737,64.5981346 L413.513473,64.5981346 C410.707336,64.5981346 408.098545,64.039108 405.687022,62.9210379 C403.275498,61.8029679 401.19285,60.2574238 399.439015,58.2843591 C397.685179,56.3112943 396.315016,54.0751879 395.328484,51.5759726 C394.341951,49.0767573 393.848693,46.489889 393.848693,43.8152902 C393.848693,41.2283831 394.363874,38.7401666 395.394252,36.350566 C396.42463,33.9609654 397.838639,31.8892785 399.63632,30.1354432 C401.477847,28.3377621 403.582418,26.9347149 405.950096,25.9262596 C408.317773,24.9178043 410.838874,24.4135842 413.513473,24.4135842 L433.901706,24.4135842 C436.400921,24.4135842 438.439724,25.1370304 440.018176,26.5839445 C441.728165,28.1623963 442.583147,30.2669671 442.583147,32.89772 C442.583147,35.4407812 441.793933,37.5672746 440.215482,39.277264 C439.513947,40.1103358 438.648004,40.7570529 437.617626,41.2174346 C436.587248,41.6778164 435.524001,41.9080038 434.427854,41.9080038 L413.842315,41.9080038 C413.184627,41.9080038 412.603678,42.1491526 412.09945,42.6314573 C411.595222,43.113762 411.343112,43.7275951 411.343112,44.4729751 C411.343112,45.3937387 411.584261,46.051417 412.066566,46.44603 C412.54887,46.8406429 413.096936,47.0379464 413.710778,47.0379464 L425.680644,47.0379464 C428.486781,47.0379464 431.117494,47.5860117 433.572864,48.6821588 C436.028233,49.7783059 438.154726,51.3128887 439.952408,53.2859534 C441.706243,55.2151723 443.065445,57.4293561 444.030054,59.9285714 C444.994664,62.4277867 445.476961,65.0365776 445.476961,67.7550223 C445.476961,70.4296212 445.016586,72.9616829 444.095823,75.3512835 C443.175059,77.7408841 441.859702,79.8564162 440.149713,81.6979432 C438.395878,83.5833162 436.335152,85.0630925 433.967474,86.1373166 C431.599797,87.2115408 429.034851,87.79249 426.272561,87.8801818 L400.754385,87.8801818 C398.474399,87.8801818 396.567131,87.0471225 395.032526,85.380979 Z M504.898796,87.3540338 C503.824572,86.915575 502.892861,86.3017418 502.103635,85.5125159 C500.393646,83.8902183 499.538664,81.873338 499.538664,79.4618144 L499.538664,55.6536193 C499.538664,53.7244004 499.242709,51.9048236 498.650789,50.1948342 C498.05887,48.4848448 497.214849,46.9941071 496.118702,45.7225765 C495.022555,44.4510459 493.685276,43.4645284 492.106824,42.7629943 C490.528372,42.0614601 488.796486,41.7106983 486.911113,41.7106983 C484.981894,41.7106983 483.030782,42.0395375 481.057717,42.6972258 C479.084652,43.354914 477.265075,44.2756637 475.598932,45.4595026 C473.888942,46.6871873 472.518779,48.1231184 471.488401,49.767339 C470.458023,51.4115596 469.942841,53.1324846 469.942841,54.9301658 L469.942841,79.1987404 C469.942841,80.3825793 469.723615,81.5006325 469.285156,82.5529337 C468.846697,83.6052349 468.232864,84.5259846 467.443638,85.3152105 C465.733649,87.0251999 463.672923,87.8801818 461.2614,87.8801818 C460.077561,87.8801818 458.937585,87.6499943 457.841438,87.1896126 C456.745291,86.7292308 455.802619,86.1044363 455.013393,85.3152105 C454.224167,84.5259846 453.599373,83.5942735 453.138991,82.5200494 C452.678609,81.4458253 452.448422,80.3387334 452.448422,79.1987404 L452.448422,9.81297832 C452.448422,8.62913949 452.678609,7.48916364 453.138991,6.39301658 C453.599373,5.29686952 454.24609,4.35419719 455.079161,3.5649713 C455.868387,2.77574542 456.800098,2.15095096 457.874322,1.6905692 C458.948547,1.23018743 460.077561,1 461.2614,1 C462.401393,1 463.508485,1.23018743 464.582709,1.6905692 C465.656933,2.15095096 466.588644,2.77574542 467.37787,3.5649713 C468.167096,4.35419719 468.79189,5.29686952 469.252272,6.39301658 C469.712654,7.48916364 469.942841,8.62913949 469.942841,9.81297832 L469.942841,31.3850446 C472.442057,29.1927505 475.127577,27.4827868 477.999482,26.255102 C480.871387,25.0274173 483.841901,24.4135842 486.911113,24.4135842 C491.076472,24.4135842 495.011581,25.2137595 498.716558,26.8141342 C502.421535,28.414509 505.65512,30.6615767 508.417411,33.555405 C511.135855,36.4053873 513.251388,39.7376244 514.76407,43.5522162 C516.276753,47.366808 517.033084,51.4005687 517.033084,55.6536193 L517.033084,79.4618144 C517.033084,81.873338 516.178102,83.8902183 514.468112,85.5125159 C512.714277,87.1786595 510.653551,88.0117187 508.285874,88.0117187 C507.102035,88.0117187 505.97302,87.7924926 504.898796,87.3540338 Z M546.201411,86.1373166 C542.32105,84.4930961 538.890162,82.1802604 535.908642,79.1987404 C532.927122,76.2610663 530.603325,72.8411388 528.937181,68.9388552 C527.271038,65.0365717 526.437978,60.9151206 526.437978,56.5743782 C526.437978,52.2336358 527.271038,48.1012234 528.937181,44.1770169 C530.603325,40.2528104 532.927122,36.799999 535.908642,33.818479 C538.890162,30.8369589 542.32105,28.5241233 546.201411,26.8799027 C550.081772,25.2356821 554.192261,24.4135842 558.533004,24.4135842 C562.8299,24.4135842 566.918468,25.2247208 570.798828,26.8470185 C574.679189,28.4693161 578.088155,30.7492678 581.025829,33.686942 C583.963503,36.5807702 586.276339,39.9568525 587.964405,43.8152902 C589.652472,47.6737278 590.540338,51.7513337 590.628029,56.0482302 L590.628029,79.6591199 C590.628029,82.1583352 589.773047,84.262906 588.063058,85.9728954 C587.229986,86.8059672 586.265391,87.4526842 585.169244,87.913066 C584.073097,88.3734478 582.911199,88.6036352 581.683514,88.6036352 C580.061216,88.6036352 578.625285,88.2419121 577.375678,87.518455 C576.12607,86.794998 575.106668,85.7755965 574.317443,84.46022 C569.362858,87.2225106 564.101431,88.6036352 558.533004,88.6036352 C554.192261,88.6036352 550.081772,87.7815372 546.201411,86.1373166 Z M564.189094,69.9253827 C565.986776,69.1800027 567.543281,68.1496399 568.858658,66.8342634 C570.21788,65.475041 571.270165,63.9185356 572.015545,62.1647003 C572.760925,60.410865 573.13361,58.5474429 573.13361,56.5743782 C573.13361,54.6013135 572.760925,52.7378914 572.015545,50.9840561 C571.270165,49.2302208 570.21788,47.6737153 568.858658,46.314493 C567.543281,44.9991165 565.986776,43.9687537 564.189094,43.2233737 C562.391413,42.4779937 560.506069,42.1053093 558.533004,42.1053093 C556.603785,42.1053093 554.751324,42.4779937 552.975566,43.2233737 C551.199808,43.9687537 549.654264,44.9991165 548.338887,46.314493 C546.979665,47.6737153 545.916418,49.2302208 545.149115,50.9840561 C544.381812,52.7378914 543.998166,54.6013135 543.998166,56.5743782 C543.998166,58.5474429 544.381812,60.410865 545.149115,62.1647003 C545.916418,63.9185356 546.979665,65.475041 548.338887,66.8342634 C549.654264,68.1496399 551.199808,69.1800027 552.975566,69.9253827 C554.751324,70.6707627 556.603785,71.0434471 558.533004,71.0434471 C560.506069,71.0434471 562.391413,70.6707627 564.189094,69.9253827 Z M604.899793,85.380979 C604.110567,84.5917531 603.485772,83.6710033 603.025391,82.6187022 C602.565009,81.566401 602.334821,80.4483478 602.334821,79.2645089 L602.334821,45.9856505 C602.334821,42.7849011 602.948655,39.7595806 604.176339,36.9095982 C605.404024,34.0596159 607.113988,31.5385154 609.306282,29.3462213 C611.45473,27.1539272 613.953908,25.4549247 616.80389,24.2491629 C619.653873,23.0434012 622.679193,22.4405293 625.879943,22.4405293 C631.360678,22.4405293 636.359034,24.2381836 640.875159,27.8335459 C645.391285,24.2381836 650.367718,22.4405293 655.804608,22.4405293 C659.005357,22.4405293 662.074523,23.0434012 665.012197,24.2491629 C667.949871,25.4549247 670.558662,27.1539272 672.838648,29.3462213 C675.118634,31.5385154 676.894365,34.0705772 678.165896,36.9424825 C679.437427,39.8143878 680.073182,42.828747 680.073182,45.9856505 L680.073182,79.2645089 C680.073182,80.4483478 679.842995,81.566401 679.382613,82.6187022 C678.922231,83.6710033 678.297437,84.5917531 677.508211,85.380979 C675.842068,87.0471225 673.825187,87.8801818 671.45751,87.8801818 C669.00214,87.8801818 666.941415,87.0471225 665.275271,85.380979 C664.486045,84.5917531 663.861251,83.6710033 663.400869,82.6187022 C662.940487,81.566401 662.7103,80.4483478 662.7103,79.2645089 L662.7103,46.5117985 C662.7103,45.7225726 662.512996,44.9443198 662.118383,44.1770169 C661.72377,43.409714 661.197628,42.7410743 660.539939,42.1710778 C659.882251,41.6449272 659.147844,41.2283976 658.336695,40.9214764 C657.525546,40.6145552 656.725371,40.4610969 655.936145,40.4610969 C654.401539,40.4610969 653.053298,40.9543557 651.891382,41.9408881 C650.729466,42.9274204 650.038904,44.166048 649.819675,45.656808 C649.819675,45.8760374 649.841597,46.0514183 649.885443,46.182956 L649.885443,79.0014349 C649.885443,81.3691126 649.052384,83.4298382 647.38624,85.1836735 C646.597015,85.9728994 645.676265,86.5976938 644.623964,87.0580756 C643.571662,87.5184573 642.453609,87.7486448 641.26977,87.7486448 C638.858247,87.7486448 636.797521,86.8936629 635.087532,85.1836735 C633.377542,83.4736841 632.522561,81.4129585 632.522561,79.0014349 L632.522561,47.3667889 L632.391024,46.577567 L632.391024,46.5117985 C632.391024,45.7225726 632.226604,44.9443198 631.89776,44.1770169 C631.568916,43.409714 631.119502,42.7410743 630.549506,42.1710778 C629.979509,41.6010813 629.31087,41.1516678 628.543567,40.8228237 C627.776264,40.4939795 626.998011,40.3295599 626.208785,40.3295599 C624.674179,40.3295599 623.314977,40.7899348 622.131138,41.7106983 C620.9473,42.6314619 620.180008,43.8152829 619.829241,45.2621971 C619.916933,45.8760394 619.960778,46.2925691 619.960778,46.5117985 L619.697704,79.2645089 C619.653858,80.4483478 619.412709,81.566401 618.974251,82.6187022 C618.535792,83.6710033 617.921959,84.5917531 617.132733,85.380979 C615.466589,87.0471225 613.449709,87.8801818 611.082031,87.8801818 C608.626662,87.8801818 606.565936,87.0471225 604.899793,85.380979 Z M707.827487,86.1044324 C703.881358,84.4382889 700.417585,82.1364146 697.436065,79.1987404 C694.454545,76.2172204 692.119787,72.7863316 690.43172,68.905971 C688.743654,65.0256104 687.899633,60.9151206 687.899633,56.5743782 C687.899633,52.1897899 688.743654,48.0354549 690.43172,44.1112484 C692.119787,40.1870419 694.454545,36.7342305 697.436065,33.7527105 C700.417585,30.8150363 703.870397,28.5241233 707.794603,26.8799027 C711.718809,25.2356821 715.873145,24.4135842 720.257733,24.4135842 C724.554629,24.4135842 728.654158,25.2247208 732.556441,26.8470185 C736.458725,28.4693161 739.900575,30.7273452 742.882095,33.6211735 C745.819769,36.5588476 748.143566,39.9678138 749.853555,43.8481744 C751.563545,47.728535 752.462372,51.8171022 752.550064,56.1139987 C752.550064,58.613214 751.749888,60.6191331 750.149514,62.131816 C748.549139,63.644499 746.477452,64.4008291 743.934391,64.4008291 L707.432876,64.4008291 C708.87979,66.680815 710.72129,68.4784692 712.95743,69.7938457 C715.19357,71.1092221 717.62698,71.7669005 720.257733,71.7669005 C721.88003,71.7669005 723.21731,71.6353648 724.269611,71.3722895 C725.321912,71.1092142 726.286507,70.7146072 727.163425,70.1884566 C728.829568,69.1361555 730.517609,68.6100128 732.227599,68.6100128 C734.595277,68.6100128 736.634079,69.5088399 738.344069,71.306521 C739.089449,72.1395928 739.681359,73.1041878 740.119818,74.2003348 C740.558277,75.2964819 740.777503,76.4364577 740.777503,77.6202966 C740.777503,79.1549024 740.350012,80.5798722 739.495018,81.8952487 C738.640023,83.2106252 737.379473,84.350601 735.713329,85.3152105 C731.898737,87.5075046 726.746923,88.6036352 720.257733,88.6036352 C715.91699,88.6036352 711.773617,87.7705759 707.827487,86.1044324 Z M734.595265,49.8002232 C733.36758,47.1256244 731.515119,45.0100923 729.037827,43.4535635 C726.560534,41.8970346 723.743479,41.1187819 720.586575,41.1187819 C717.429672,41.1187819 714.667423,41.9079959 712.299745,43.4864477 C709.932067,45.0648995 708.134413,47.1694703 706.906728,49.8002232 L734.595265,49.8002232 Z" id="hat-of-shame-copy-2" fill="#FFFFFF"></path>
    </g>
</svg>