<?xml version="1.0" encoding="UTF-8" standalone="no"?>
<svg width="156px" height="156px" viewBox="0 0 156 156" version="1.1" xmlns="http://www.w3.org/2000/svg" xmlns:xlink="http://www.w3.org/1999/xlink">
    <!-- Generator: Sketch 49.1 (51147) - http://www.bohemiancoding.com/sketch -->
    <title>Group 15 Copy 2</title>
    <desc>Created with Sketch.</desc>
    <defs></defs>
    <g id="Logo-/-Assets" stroke="none" stroke-width="1" fill="none" fill-rule="evenodd">
        <g id="Group-15-Copy-2" transform="translate(3.000000, 3.000000)">
            <circle id="Oval-Copy" stroke="#FFFFFF" stroke-width="6" cx="75" cy="75" r="75"></circle>
            <path d="M96.8555431,34.0373087 C85.2338476,32.7670441 74.9018526,32.3781007 69.7275091,40.3656546 C66.754486,44.9550643 66.2354974,52.2598525 66.2354974,63.879191 C57.6340547,63.879191 53.3333333,63.879191 53.3333333,63.879191 C53.3333333,73.592794 53.3333333,78.4495955 53.3333333,78.4495955 C61.8976373,78.4495955 66.1797893,78.4495955 66.1797893,78.4495955 C66.1797893,103.927643 66.1797893,116.666667 66.1797893,116.666667 C76.4206766,116.666667 81.5411202,116.666667 81.5411202,116.666667 C81.5411202,91.4180178 81.5411202,78.7936934 81.5411202,78.7936934 L94.4793439,78.7936934 L96.2497889,63.879191 L81.5964934,63.879191 L81.5964934,53.9572204 C81.5121563,51.6884804 82.1542685,49.6905077 83.9024504,48.6213916 C85.5370853,47.6217162 89.8547828,47.2207337 96.8555431,47.4184441 C96.7815648,42.6444767 96.7815648,38.1840982 96.8555431,34.0373087 Z" id="Path-4" fill="#FFFFFF"></path>
        </g>
    </g>
</svg>