<?xml version="1.0" encoding="UTF-8" standalone="no"?>
<svg width="156px" height="156px" viewBox="0 0 156 156" version="1.1" xmlns="http://www.w3.org/2000/svg" xmlns:xlink="http://www.w3.org/1999/xlink">
    <!-- Generator: Sketch 49.1 (51147) - http://www.bohemiancoding.com/sketch -->
    <title>Group 14 Copy</title>
    <desc>Created with Sketch.</desc>
    <defs></defs>
    <g id="Logo-/-Assets" stroke="none" stroke-width="1" fill="none" fill-rule="evenodd">
        <g id="Group-14-Copy" transform="translate(3.000000, 3.000000)">
            <circle id="Oval" stroke="#7885E7" stroke-width="6" cx="75" cy="75" r="75"></circle>
            <path d="M92.2077527,58.8568003 L105.987964,45.3125483 C101.941822,41.3602237 97.8932152,38.5734005 93.8421426,36.9520787 C90.1314123,35.4669687 83.279383,33.0709988 74.9033392,33.3567431 C69.5629613,33.5389273 63.4098255,34.3425656 57.2414895,37.6818849 C47.5392261,42.9343478 39.7536193,52.0444128 36.5751679,62.6809149 C34.4008314,69.9572049 34.9655352,77.3203184 35.4268899,82.5645364 C36.1087637,90.3153948 41.0368785,99.7815454 48.7819524,106.340802 C53.937475,110.706984 61.0224047,114.065013 66.0585599,115.465649 C73.8679055,117.637556 86.4014899,117.022132 96.3183953,112.313397 C102.828366,109.222339 107.802762,103.626834 111.004376,98.4962227 C116.390218,89.8653675 117.91768,79.1737298 115.586762,66.4213097 L74.9033392,66.4213097 L74.9033392,84.6799421 L95.6274621,84.6799421 C93.8121858,88.70398 91.3714248,91.7613868 88.305179,93.8521624 C83.7058104,96.9883258 75.2900711,97.9632 68.9986759,95.9076812 C62.7072806,93.8521624 56.6447068,86.56891 55.4061516,82.5645364 C54.1675965,78.5601629 51.8469071,66.0950605 62.3893739,57.2827571 C67.0634666,53.3757472 75.3432412,51.3986374 82.5923919,53.1523531 C85.0265306,53.7412203 88.2316508,55.6427027 92.2077527,58.8568003 Z" id="Path-3" fill="#7885E7"></path>
        </g>
    </g>
</svg>