<?xml version="1.0" encoding="UTF-8" standalone="no"?><!DOCTYPE svg PUBLIC "-//W3C//DTD SVG 1.1//EN" "http://www.w3.org/Graphics/SVG/1.1/DTD/svg11.dtd"><svg width="100%" height="100%" viewBox="0 0 32 32" version="1.1" xmlns="http://www.w3.org/2000/svg" xmlns:xlink="http://www.w3.org/1999/xlink" xml:space="preserve" xmlns:serif="http://www.serif.com/" style="fill-rule:evenodd;clip-rule:evenodd;stroke-linejoin:round;stroke-miterlimit:1.41421;"><rect id="Artboard1" x="0" y="0" width="32" height="32" style="fill:none;"/><clipPath id="_clip1"><rect x="0" y="0" width="32" height="32"/></clipPath><g clip-path="url(#_clip1)"><path id="Combined-Shape-Copy-4" d="M16.001,31.999c-8.837,0 -16,-7.163 -16,-16c0,-8.837 7.163,-16 16,-16c8.837,0 16,7.163 16,16c0,8.837 -7.163,16 -16,16Zm0,-24c-2.761,0 -5,2.256 -5,5.038c0,2.783 2.239,5.038 5,5.038c2.761,0 5,-2.255 5,-5.038c0,-2.782 -2.239,-5.038 -5,-5.038Zm5.728,10.511l-2.229,-0.561c-2.341,1.697 -5.179,1.318 -6.998,0l-2.229,0.561c-1.335,0.337 -2.272,1.546 -2.272,2.933l0,1.167c0,0.834 0.672,1.511 1.5,1.511l13,0c0.828,0 1.5,-0.677 1.5,-1.511l0,-1.167c0,-1.387 -0.937,-2.596 -2.272,-2.933Z" style="fill:#fff;"/></g></svg>