<?xml version="1.0" encoding="UTF-8" standalone="no"?>
<svg width="32px" height="33px" viewBox="0 0 32 33" version="1.1" xmlns="http://www.w3.org/2000/svg" xmlns:xlink="http://www.w3.org/1999/xlink">
    <!-- Generator: Sketch 49.1 (51147) - http://www.bohemiancoding.com/sketch -->
    <title>Combined Shape Copy 4</title>
    <desc>Created with Sketch.</desc>
    <defs></defs>
    <g id="Main-Design" stroke="none" stroke-width="1" fill="none" fill-rule="evenodd">
        <g id="Edit-Lists-Copy-8" transform="translate(-49.000000, -260.000000)" fill="#FFFFFF">
            <g id="Group-5" transform="translate(49.000000, 206.000000)">
                <path d="M16,86.2857143 C7.163444,86.2857143 0,79.1222703 0,70.2857143 C0,61.4491583 7.163444,54.2857143 16,54.2857143 C24.836556,54.2857143 32,61.4491583 32,70.2857143 C32,79.1222703 24.836556,86.2857143 16,86.2857143 Z M16,62.2857143 C13.2385625,62.2857143 11,64.541365 11,67.3238822 C11,70.1063994 13.2385625,72.3620502 16,72.3620502 C18.7614375,72.3620502 21,70.1063994 21,67.3238822 C21,64.541365 18.7614375,62.2857143 16,62.2857143 Z M21.7275937,72.7972534 L19.4990625,72.2358755 C17.1577187,73.9327935 14.31975,73.5541122 12.5009375,72.2358755 L10.2724062,72.7972534 C8.93690625,73.1336771 8,74.3427744 8,75.729908 L8,76.8964013 C8,77.7311628 8.6715625,78.4078517 9.5,78.4078517 L22.5,78.4078517 C23.3284375,78.4078517 24,77.7311628 24,76.8964013 L24,75.729908 C24,74.3427744 23.0630937,73.1336771 21.7275937,72.7972534 Z" id="Combined-Shape-Copy-4"></path>
            </g>
        </g>
    </g>
</svg>