<?xml version="1.0" encoding="UTF-8" standalone="no"?>
<svg width="32px" height="32px" viewBox="0 0 32 32" version="1.1" xmlns="http://www.w3.org/2000/svg" xmlns:xlink="http://www.w3.org/1999/xlink">
    <!-- Generator: Sketch 50.2 (55047) - http://www.bohemiancoding.com/sketch -->
    <title>Group 31</title>
    <desc>Created with Sketch.</desc>
    <defs></defs>
    <g id="Main-Design" stroke="none" stroke-width="1" fill="none" fill-rule="evenodd">
        <g id="Group-31" fill="#FFFFFF">
            <path d="M22.2893256,1.28348284 C21.4819243,2.30546413 21,3.59645234 21,5 C21,8.3137085 23.6862915,11 27,11 C28.4035477,11 29.6945359,10.5180757 30.7165172,9.71067441 C31.5426488,11.641249 32,13.7672144 32,16 C32,24.836556 24.836556,32 16,32 C7.163444,32 0,24.836556 0,16 C0,7.163444 7.163444,0 16,0 C18.2327856,0 20.358751,0.457351211 22.2893256,1.28348284 Z M16,8 C13.2385625,8 11,10.2556508 11,13.0381679 C11,15.8206851 13.2385625,18.0763359 16,18.0763359 C18.7614375,18.0763359 21,15.8206851 21,13.0381679 C21,10.2556508 18.7614375,8 16,8 Z M21.7275937,18.5115391 L19.4990625,17.9501613 C17.1577187,19.6470792 14.31975,19.2683979 12.5009375,17.9501613 L10.2724062,18.5115391 C8.93690625,18.8479628 8,20.0570601 8,21.4441937 L8,22.610687 C8,23.4454485 8.6715625,24.1221374 9.5,24.1221374 L22.5,24.1221374 C23.3284375,24.1221374 24,23.4454485 24,22.610687 L24,21.4441937 C24,20.0570601 23.0630937,18.8479628 21.7275937,18.5115391 Z" id="Combined-Shape"></path>
            <path d="M32,5.03937008 C32,7.82254509 29.7614315,10.0787402 27,10.0787402 C24.2385685,10.0787402 22,7.82254509 22,5.03937008 C22,2.25619507 24.2385685,0 27,0 C29.7614315,0 32,2.25619507 32,5.03937008 Z M26.4216532,7.7076759 L30.1313306,3.96878842 C30.2572984,3.8418288 30.2572984,3.63596647 30.1313306,3.50900686 L29.6751411,3.0492253 C29.5491734,2.92224536 29.3449194,2.92224536 29.2189315,3.0492253 L26.1935484,6.09840996 L24.7810685,4.67480823 C24.6551008,4.54784862 24.4508468,4.54784862 24.3248589,4.67480823 L23.8686694,5.13458979 C23.7427016,5.2615494 23.7427016,5.46741173 23.8686694,5.59437135 L25.9654435,7.70765558 C26.0914315,7.83463551 26.2956653,7.83463551 26.4216532,7.7076759 Z" id="Shape" fill-rule="nonzero"></path>
        </g>
    </g>
</svg>