<?xml version="1.0" encoding="UTF-8" standalone="no"?>
<svg width="32px" height="34px" viewBox="0 0 32 34" version="1.1" xmlns="http://www.w3.org/2000/svg" xmlns:xlink="http://www.w3.org/1999/xlink">
    <!-- Generator: Sketch 50.2 (55047) - http://www.bohemiancoding.com/sketch -->
    <title>Group 30</title>
    <desc>Created with Sketch.</desc>
    <defs></defs>
    <g id="Main-Design" stroke="none" stroke-width="1" fill="none" fill-rule="evenodd">
        <g id="Group-30" fill="#FFFFFF">
            <path d="M21.3691703,2.92314529 C21.1303965,3.57029509 21,4.26991968 21,5 C21,8.3137085 23.6862915,11 27,11 C28.0840537,11 29.10096,10.7125078 29.9786348,10.2096073 C31.2662117,12.5150196 32,15.1718171 32,18 C32,26.836556 24.836556,34 16,34 C7.163444,34 0,26.836556 0,18 C0,9.163444 7.163444,2 16,2 C17.8834544,2 19.690899,2.32543632 21.3691703,2.92314529 Z M9.05142805,18.0665913 C12.3744514,19.4751981 14.3111637,19.5240341 15.5865437,19.6190762 C16.8619237,19.7141182 20.4678376,19.1802071 22.8105609,17.9993386 C23.0325048,12.6752761 19.8961665,11.602851 18.2711408,11.2350988 C16.6461151,10.8673466 14.8984603,10.9787493 13.5579615,11.2433204 C12.2174627,11.5078915 8.52246033,12.7944076 9.05142805,18.0665913 Z M8.73627952,19.3898742 C6.87486626,18.6746084 6.41482923,19.0837243 5.78065395,19.6934157 C4.77695699,20.6447371 4.91165816,21.7183707 5.24636873,22.6445593 C5.90787002,24.289178 8.6646979,24.7786402 8.6646979,24.7786402 C9.15669329,23.4199924 10.4944819,22.8561005 11.8421856,22.5190977 C13.1898893,22.1820948 18.5649707,22.0267155 20.7773717,22.7164161 C22.280934,23.1851412 23.162388,24.2744509 23.1953342,24.5906814 C23.2053422,24.6696479 23.2021479,24.7156627 23.2021479,24.7156627 C23.2021479,24.7156627 23.7135251,24.7502884 25.1850815,24.0835038 C27.6505725,22.8140759 27.0318874,20.6012449 26.5253349,20.0833662 C25.9806597,19.537123 25.2663165,18.1517833 22.0631412,19.7351814 C18.2209664,21.1531609 12.030343,21.0143803 8.73627952,19.3898742 Z" id="Combined-Shape"></path>
            <path d="M32,5.03937008 C32,7.82254509 29.7614315,10.0787402 27,10.0787402 C24.2385685,10.0787402 22,7.82254509 22,5.03937008 C22,2.25619507 24.2385685,0 27,0 C29.7614315,0 32,2.25619507 32,5.03937008 Z M26.4216532,7.7076759 L30.1313306,3.96878842 C30.2572984,3.8418288 30.2572984,3.63596647 30.1313306,3.50900686 L29.6751411,3.0492253 C29.5491734,2.92224536 29.3449194,2.92224536 29.2189315,3.0492253 L26.1935484,6.09840996 L24.7810685,4.67480823 C24.6551008,4.54784862 24.4508468,4.54784862 24.3248589,4.67480823 L23.8686694,5.13458979 C23.7427016,5.2615494 23.7427016,5.46741173 23.8686694,5.59437135 L25.9654435,7.70765558 C26.0914315,7.83463551 26.2956653,7.83463551 26.4216532,7.7076759 Z" id="Shape" fill-rule="nonzero"></path>
        </g>
    </g>
</svg>